<svg width="150" height="156" viewBox="0 0 150 156" fill="none" xmlns="http://www.w3.org/2000/svg">
<circle cx="75" cy="78" r="75" fill="black"/>
<path d="M80.125 31.75C80.375 32.1667 80.5 33.125 80.5 34.625C80.5833 36.125 80.5417 37.75 80.375 39.5C80.2083 41.25 79.9583 42.9583 79.625 44.625C79.375 46.2083 79.0833 47.25 78.75 47.75C78.5 48.1667 76.9583 48.3333 74.125 48.25C71.375 48.0833 67.4167 47.6667 62.25 47C62.25 50.25 62.2083 54.4167 62.125 59.5C62.0417 64.5833 61.875 70.0417 61.625 75.875C61.4583 81.625 61.25 87.4167 61 93.25C60.8333 99.0833 60.625 104.375 60.375 109.125C60.125 113.875 59.875 117.75 59.625 120.75C59.375 123.75 59.1667 125.333 59 125.5C58.6667 125.75 58.0833 125.625 57.25 125.125C56.5 124.708 55.7083 124.083 54.875 123.25C54.0417 122.417 53.25 121.583 52.5 120.75C51.8333 119.833 51.375 119.042 51.125 118.375C51.0417 118.042 50.875 116.417 50.625 113.5C50.4583 110.583 50.25 106.917 50 102.5C49.75 98.0833 49.4583 93.1667 49.125 87.75C48.7917 82.3333 48.4583 76.9583 48.125 71.625C47.7917 66.2917 47.4167 61.2917 47 56.625C46.6667 51.9583 46.375 48.0833 46.125 45C40.4583 44.4167 36.375 43.8333 33.875 43.25C31.375 42.6667 29.9583 42.2083 29.625 41.875C29.2917 41.5417 28.9583 40.9167 28.625 40C28.2083 39 27.875 38 27.625 37C27.375 36 27.25 35.0833 27.25 34.25C27.1667 33.3333 27.25 32.75 27.5 32.5C27.6667 32.3333 29.0833 32.1667 31.75 32C34.3333 31.8333 37.5417 31.6667 41.375 31.5C45.2083 31.3333 49.3333 31.2083 53.75 31.125C58.25 31.0417 62.4167 31 66.25 31C70.0833 31 73.2917 31.0833 75.875 31.25C78.5417 31.3333 79.9583 31.5 80.125 31.75ZM92.75 85C92.75 86.0833 92.7083 87.7917 92.625 90.125C92.625 92.4583 92.5833 95.0833 92.5 98C92.4167 100.917 92.2917 103.958 92.125 107.125C92.0417 110.208 91.875 113.042 91.625 115.625C91.375 118.125 91.0833 120.208 90.75 121.875C90.5 123.542 90.1667 124.375 89.75 124.375C88.5 124.375 87.2917 123.5 86.125 121.75C85.0417 119.917 83.9167 117.958 82.75 115.875C82.5 115.375 82.2083 113.917 81.875 111.5C81.625 109 81.3333 105.875 81 102.125C80.75 98.375 80.5 94.2083 80.25 89.625C80 85.0417 79.75 80.375 79.5 75.625C79.25 70.875 79.0417 66.2083 78.875 61.625C78.7917 57.0417 78.7083 52.9167 78.625 49.25C78.5417 45.5833 78.5417 42.5417 78.625 40.125C78.7083 37.625 78.875 36.1667 79.125 35.75C79.4583 35.1667 80.625 34.75 82.625 34.5C84.625 34.1667 87.0417 34 89.875 34C92.7917 34 95.9167 34.0833 99.25 34.25C102.583 34.4167 105.667 34.6667 108.5 35C111.417 35.25 113.833 35.5417 115.75 35.875C117.75 36.2083 118.875 36.5 119.125 36.75C119.458 37.0833 119.5 38 119.25 39.5C119.083 40.9167 118.75 42.5 118.25 44.25C117.833 45.9167 117.292 47.5 116.625 49C116.042 50.5 115.542 51.4583 115.125 51.875C114.708 52.2917 112.75 52.25 109.25 51.75C105.833 51.25 100.333 50.6667 92.75 50V70.875C98.5833 71.375 103.125 71.8333 106.375 72.25C109.708 72.6667 111.458 72.9583 111.625 73.125C111.958 73.4583 112.083 74.125 112 75.125C111.917 76.125 111.708 77.2083 111.375 78.375C111.042 79.4583 110.625 80.5 110.125 81.5C109.625 82.4167 109.125 83.0417 108.625 83.375C108.375 83.5417 106.875 83.7917 104.125 84.125C101.458 84.4583 97.6667 84.75 92.75 85Z" fill="white"/>
</svg>
