<svg width="212" height="61" viewBox="0 0 212 61" fill="none" xmlns="http://www.w3.org/2000/svg">
<path d="M29.0625 2.55078C29.1992 2.77865 29.2676 3.30273 29.2676 4.12305C29.3132 4.94336 29.2904 5.83203 29.1992 6.78906C29.1081 7.74609 28.9714 8.68034 28.7891 9.5918C28.6523 10.4577 28.4928 11.0273 28.3105 11.3008C28.1738 11.5286 27.3307 11.6198 25.7812 11.5742C24.2773 11.4831 22.1126 11.2552 19.2871 10.8906C19.2871 12.668 19.2643 14.9466 19.2188 17.7266C19.1732 20.5065 19.082 23.4915 18.9453 26.6816C18.8542 29.8262 18.7402 32.9935 18.6035 36.1836C18.5124 39.3737 18.3984 42.2676 18.2617 44.8652C18.125 47.4629 17.9883 49.582 17.8516 51.2227C17.7148 52.8633 17.6009 53.7292 17.5098 53.8203C17.3275 53.957 17.0085 53.8887 16.5527 53.6152C16.1426 53.3874 15.7096 53.0456 15.2539 52.5898C14.7982 52.1341 14.3652 51.6784 13.9551 51.2227C13.5905 50.7214 13.3398 50.2884 13.2031 49.9238C13.1576 49.7415 13.0664 48.8529 12.9297 47.2578C12.8385 45.6628 12.7246 43.6576 12.5879 41.2422C12.4512 38.8268 12.2917 36.138 12.1094 33.1758C11.9271 30.2135 11.7448 27.2741 11.5625 24.3574C11.3802 21.4408 11.1751 18.7064 10.9473 16.1543C10.765 13.6022 10.6055 11.4831 10.4688 9.79688C7.36979 9.47786 5.13672 9.15885 3.76953 8.83984C2.40234 8.52083 1.6276 8.27018 1.44531 8.08789C1.26302 7.9056 1.08073 7.5638 0.898438 7.0625C0.670573 6.51562 0.488281 5.96875 0.351562 5.42188C0.214844 4.875 0.146484 4.3737 0.146484 3.91797C0.100911 3.41667 0.146484 3.09766 0.283203 2.96094C0.374349 2.86979 1.14909 2.77865 2.60742 2.6875C4.02018 2.59635 5.77474 2.50521 7.87109 2.41406C9.96745 2.32292 12.2233 2.25456 14.6387 2.20898C17.0996 2.16341 19.3783 2.14062 21.4746 2.14062C23.571 2.14062 25.3255 2.1862 26.7383 2.27734C28.1966 2.32292 28.9714 2.41406 29.0625 2.55078ZM46.6309 17.043C46.9043 17.362 47.1549 17.7038 47.3828 18.0684C47.6107 18.3874 47.8158 18.8431 47.998 19.4355C48.1803 19.9824 48.3171 20.7116 48.4082 21.623C48.5449 22.5345 48.6133 23.7194 48.6133 25.1777C48.6133 27.502 48.5449 29.849 48.4082 32.2188C48.3171 34.543 48.2259 36.5938 48.1348 38.3711C48.0892 39.9661 48.0436 41.4473 47.998 42.8145C47.9525 44.1816 47.9069 45.3893 47.8613 46.4375C47.8158 47.4401 47.7474 48.2376 47.6562 48.8301C47.6107 49.4225 47.5651 49.7415 47.5195 49.7871C47.3372 49.9238 47.041 49.8783 46.6309 49.6504C46.2663 49.377 45.8561 49.0352 45.4004 48.625C44.9902 48.2148 44.6029 47.7819 44.2383 47.3262C43.8737 46.8704 43.6458 46.5059 43.5547 46.2324C43.5547 46.0046 43.4863 45.3438 43.3496 44.25C42.2559 44.888 41.0482 45.3438 39.7266 45.6172C38.4049 45.8451 37.0833 45.9362 35.7617 45.8906C34.4857 45.7995 33.3008 45.5488 32.207 45.1387C31.1133 44.7285 30.293 44.1816 29.7461 43.498C29.5182 43.2246 29.3132 42.8145 29.1309 42.2676C28.9941 41.7207 28.8574 41.1055 28.7207 40.4219C28.6296 39.6927 28.5384 38.9408 28.4473 38.166C28.3561 37.3457 28.2878 36.5938 28.2422 35.9102C28.151 34.1328 28.3789 32.6061 28.9258 31.3301C29.4727 30.0085 30.4753 29.0286 31.9336 28.3906C32.5716 28.1172 33.4147 27.9805 34.4629 27.9805C35.5566 27.9349 36.6276 27.9805 37.6758 28.1172C38.7695 28.2083 39.7493 28.3451 40.6152 28.5273C41.4811 28.6641 42.028 28.778 42.2559 28.8691C42.0736 26.5449 41.9368 24.5397 41.8457 22.8535C41.7546 21.1217 41.5723 20.0052 41.2988 19.5039C41.071 19.1849 40.7975 18.8659 40.4785 18.5469C40.2051 18.319 39.8405 18.0684 39.3848 17.7949C38.929 17.5215 38.3822 17.3164 37.7441 17.1797C37.2428 17.0885 36.7871 17.2936 36.377 17.7949C36.0124 18.2507 35.6706 19.071 35.3516 20.2559C35.0781 21.3952 34.9186 23.1497 34.873 25.5195C33.278 25.5651 32.0475 25.5651 31.1816 25.5195C30.3613 25.4284 29.7461 25.3372 29.3359 25.2461C28.8346 25.1549 28.5384 25.041 28.4473 24.9043C28.3561 24.722 28.4017 24.0612 28.584 22.9219C28.7663 21.737 29.0169 20.4609 29.3359 19.0938C29.7005 17.7266 30.1107 16.4277 30.5664 15.1973C31.0677 13.9668 31.5918 13.1921 32.1387 12.873C33.2324 12.235 34.5312 12.0072 36.0352 12.1895C37.5846 12.3717 39.0885 12.7591 40.5469 13.3516C42.0052 13.944 43.304 14.6048 44.4434 15.334C45.5827 16.0632 46.3118 16.6328 46.6309 17.043ZM42.3926 37.0039C42.3926 36.776 42.4154 36.4798 42.4609 36.1152C42.5065 35.7051 42.5293 35.2949 42.5293 34.8848C42.5293 34.4746 42.5065 34.0872 42.4609 33.7227C42.4609 33.3581 42.4154 33.0846 42.3242 32.9023C42.1875 32.6289 41.7773 32.401 41.0938 32.2188C40.4557 32.0365 39.7266 31.9225 38.9062 31.877C38.0859 31.7858 37.3112 31.763 36.582 31.8086C35.8529 31.8086 35.3516 31.8997 35.0781 32.082C34.7135 32.3099 34.4401 32.6289 34.2578 33.0391C34.1211 33.4492 34.0299 34.0872 33.9844 34.9531C33.9844 35.3633 34.0072 35.7962 34.0527 36.252C34.0983 36.7077 34.1439 37.1634 34.1895 37.6191C34.2806 38.0293 34.3717 38.3939 34.4629 38.7129C34.5996 39.0319 34.7363 39.237 34.873 39.3281C35.1921 39.556 35.7389 39.7611 36.5137 39.9434C37.334 40.0801 38.1543 40.1257 38.9746 40.0801C39.7949 39.9889 40.5469 39.7155 41.2305 39.2598C41.9141 38.804 42.3014 38.0521 42.3926 37.0039ZM72.8125 19.3672C72.8581 19.8685 72.7669 20.6432 72.5391 21.6914C72.3568 22.7396 72.0605 23.7878 71.6504 24.8359C71.2858 25.8841 70.7845 26.7956 70.1465 27.5703C69.554 28.3451 68.8704 28.7324 68.0957 28.7324C67.5488 28.7324 67.0931 28.2995 66.7285 27.4336C66.4095 26.5677 66.1589 25.5651 65.9766 24.4258C65.8398 23.2409 65.7259 22.0788 65.6348 20.9395C65.5436 19.8001 65.4525 19.0026 65.3613 18.5469C65.2246 18.319 64.9512 18.1139 64.541 17.9316C64.1764 17.7038 63.8118 17.5898 63.4473 17.5898C63.0827 17.5898 62.6725 17.8861 62.2168 18.4785C61.7611 19.071 61.3053 19.7546 60.8496 20.5293C60.4395 21.304 60.0749 22.0788 59.7559 22.8535C59.4824 23.6283 59.3685 24.1979 59.4141 24.5625C59.4141 24.8359 59.7103 25.3145 60.3027 25.998C60.8952 26.6816 61.6243 27.502 62.4902 28.459C63.4017 29.3704 64.3587 30.373 65.3613 31.4668C66.4095 32.515 67.3665 33.5859 68.2324 34.6797C69.0983 35.7279 69.8275 36.7305 70.4199 37.6875C71.0579 38.6445 71.3997 39.4648 71.4453 40.1484C71.4909 40.9688 71.263 42.0169 70.7617 43.293C70.306 44.569 69.7135 45.7995 68.9844 46.9844C68.2552 48.1693 67.4805 49.1947 66.6602 50.0605C65.8398 50.9264 65.1107 51.3822 64.4727 51.4277C63.8346 51.4733 62.9004 51.1315 61.6699 50.4023C60.485 49.6276 59.2773 48.7389 58.0469 47.7363C56.862 46.6882 55.791 45.6628 54.834 44.6602C53.9225 43.6576 53.3984 42.9284 53.2617 42.4727C53.125 42.0625 53.0339 41.5156 52.9883 40.832C52.9883 40.1484 53.0111 39.4648 53.0566 38.7812C53.1478 38.0977 53.2845 37.528 53.4668 37.0723C53.6491 36.571 53.877 36.3203 54.1504 36.3203C54.4238 36.3203 54.9707 36.7988 55.791 37.7559C56.6113 38.6673 57.5 39.7155 58.457 40.9004C59.4141 42.0397 60.3483 43.0879 61.2598 44.0449C62.1712 44.9564 62.832 45.4121 63.2422 45.4121C63.4701 45.4121 63.7207 45.2526 63.9941 44.9336C64.2676 44.569 64.5182 44.1589 64.7461 43.7031C64.974 43.2474 65.1562 42.7917 65.293 42.3359C65.4753 41.8346 65.5664 41.4473 65.5664 41.1738C65.5208 40.7637 65.1562 40.1712 64.4727 39.3965C63.7891 38.6217 62.9232 37.7559 61.875 36.7988C60.8268 35.8418 59.6875 34.8392 58.457 33.791C57.2266 32.6973 56.0872 31.6719 55.0391 30.7148C53.9909 29.7578 53.125 28.8919 52.4414 28.1172C51.7578 27.3424 51.3932 26.75 51.3477 26.3398C51.3021 25.9297 51.4388 25.2917 51.7578 24.4258C52.0768 23.5143 52.487 22.5345 52.9883 21.4863C53.4896 20.3926 54.0592 19.276 54.6973 18.1367C55.3809 16.9974 56.0645 15.9492 56.748 14.9922C57.4316 14.0352 58.0924 13.2604 58.7305 12.668C59.4141 12.0299 60.0065 11.7109 60.5078 11.7109C61.5104 11.7109 62.6953 11.9844 64.0625 12.5312C65.4753 13.0781 66.8197 13.7617 68.0957 14.582C69.3717 15.3568 70.4655 16.1771 71.377 17.043C72.2884 17.9089 72.7669 18.6836 72.8125 19.3672ZM90.0391 17.8633C90.0846 18 90.0846 18.3874 90.0391 19.0254C89.9935 19.6178 89.9023 20.3014 89.7656 21.0762C89.6745 21.8053 89.5605 22.4889 89.4238 23.127C89.2871 23.7194 89.1732 24.084 89.082 24.2207C88.6263 24.2663 88.1706 24.2891 87.7148 24.2891C87.2591 24.2435 86.8262 24.2207 86.416 24.2207H84.9805C84.9349 27.2285 84.8665 30.2135 84.7754 33.1758C84.6842 36.138 84.5703 38.804 84.4336 41.1738C84.2969 43.498 84.1374 45.3893 83.9551 46.8477C83.8184 48.306 83.6816 49.0579 83.5449 49.1035C83.2259 49.1491 82.8613 49.0124 82.4512 48.6934C82.041 48.3743 81.6309 47.987 81.2207 47.5312C80.8561 47.0299 80.5143 46.5286 80.1953 46.0273C79.9219 45.4805 79.7624 45.002 79.7168 44.5918C79.4889 41.8118 79.2839 39.1686 79.1016 36.6621C78.9193 34.11 78.7826 31.8542 78.6914 29.8945C78.5091 27.6159 78.3952 25.4967 78.3496 23.5371C77.8483 23.4915 77.347 23.4232 76.8457 23.332C76.39 23.2409 75.9115 23.1497 75.4102 23.0586C74.9544 22.9674 74.4759 22.8763 73.9746 22.7852C73.8835 22.694 73.7695 22.4889 73.6328 22.1699C73.4961 21.8053 73.3594 21.418 73.2227 21.0078C73.1315 20.5977 73.0404 20.2103 72.9492 19.8457C72.8581 19.4355 72.8125 19.1393 72.8125 18.957C72.8125 18.8203 73.3138 18.6836 74.3164 18.5469C75.3646 18.4102 76.6406 18.2962 78.1445 18.2051C78.0534 15.7897 77.985 13.6934 77.9395 11.916C77.9395 10.0931 78.0078 8.86263 78.1445 8.22461C78.2812 7.35872 78.6458 6.53841 79.2383 5.76367C79.8763 4.94336 80.5371 4.23698 81.2207 3.64453C81.9499 3.05208 82.6107 2.61914 83.2031 2.3457C83.8411 2.02669 84.2513 1.93555 84.4336 2.07227C84.5703 2.16341 84.6842 2.64193 84.7754 3.50781C84.8665 4.32812 84.9349 5.44466 84.9805 6.85742C85.026 8.27018 85.0488 9.93359 85.0488 11.8477C85.0488 13.7161 85.0488 15.6986 85.0488 17.7949C86.416 17.7038 87.5781 17.681 88.5352 17.7266C89.4922 17.7266 89.9935 17.7721 90.0391 17.8633ZM108.086 14.7188C108.223 14.8099 108.337 15.4023 108.428 16.4961C108.519 17.5898 108.587 19.0254 108.633 20.8027C108.724 22.5345 108.77 24.5169 108.77 26.75C108.77 28.9831 108.77 31.2845 108.77 33.6543C108.77 36.0241 108.747 38.3711 108.701 40.6953C108.701 42.974 108.656 45.0703 108.564 46.9844C108.519 48.8529 108.451 50.4479 108.359 51.7695C108.314 53.0911 108.245 53.9342 108.154 54.2988C108.063 54.5723 107.79 54.9824 107.334 55.5293C106.924 56.1217 106.423 56.7142 105.83 57.3066C105.238 57.8991 104.622 58.4232 103.984 58.8789C103.392 59.3802 102.891 59.6992 102.48 59.8359C101.66 60.1094 100.749 60.0638 99.7461 59.6992C98.7435 59.3346 97.7865 58.8561 96.875 58.2637C96.0091 57.6712 95.2344 57.0332 94.5508 56.3496C93.9128 55.7116 93.5254 55.2559 93.3887 54.9824C93.252 54.709 93.1152 54.2988 92.9785 53.752C92.8874 53.2507 92.819 52.7493 92.7734 52.248C92.7279 51.7012 92.7279 51.2454 92.7734 50.8809C92.8646 50.4707 93.0241 50.2656 93.252 50.2656C93.4342 50.2656 93.9128 50.4707 94.6875 50.8809C95.5078 51.291 96.3737 51.724 97.2852 52.1797C98.1966 52.5898 99.0397 52.9316 99.8145 53.2051C100.589 53.4785 101.068 53.4557 101.25 53.1367C101.432 52.7721 101.615 51.7923 101.797 50.1973C101.979 48.5566 102.161 46.5742 102.344 44.25C100.749 44.7969 99.2904 45.1615 97.9688 45.3438C96.6927 45.4805 95.6217 45.2526 94.7559 44.6602C94.3457 44.3867 93.9128 43.9082 93.457 43.2246C93.0469 42.541 92.6595 41.7663 92.2949 40.9004C91.9759 39.9889 91.7025 39.0319 91.4746 38.0293C91.2467 36.9811 91.1328 36.0013 91.1328 35.0898C91.1328 34.4518 91.2012 33.5404 91.3379 32.3555C91.5202 31.1706 91.748 29.8717 92.0215 28.459C92.2949 27.0462 92.5684 25.5879 92.8418 24.084C93.1608 22.5801 93.457 21.2129 93.7305 19.9824C94.0495 18.752 94.3001 17.7266 94.4824 16.9062C94.7103 16.0404 94.847 15.5618 94.8926 15.4707C94.9837 15.334 95.2116 15.2656 95.5762 15.2656C95.9408 15.2201 96.3281 15.2428 96.7383 15.334C97.1484 15.3796 97.5358 15.4935 97.9004 15.6758C98.265 15.8581 98.4928 16.0632 98.584 16.291C98.6296 16.4733 98.6296 17.043 98.584 18C98.584 18.957 98.5156 20.0964 98.3789 21.418C98.2878 22.7396 98.1738 24.1751 98.0371 25.7246C97.946 27.2285 97.832 28.6641 97.6953 30.0312C97.6042 31.3529 97.513 32.4922 97.4219 33.4492C97.3307 34.4062 97.2852 34.9759 97.2852 35.1582C97.2852 35.8874 97.3535 36.5938 97.4902 37.2773C97.6725 37.9154 97.8776 38.485 98.1055 38.9863C98.3789 39.4421 98.6523 39.8066 98.9258 40.0801C99.1992 40.3535 99.4499 40.4447 99.6777 40.3535C100.452 40.2168 101.159 40.0345 101.797 39.8066C102.116 39.6699 102.412 39.5332 102.686 39.3965C102.822 37.1634 102.959 34.8848 103.096 32.5605C103.232 30.1908 103.346 28.026 103.438 26.0664C103.529 24.1068 103.597 22.4434 103.643 21.0762C103.734 19.709 103.779 18.8431 103.779 18.4785C103.779 18.0684 103.962 17.6126 104.326 17.1113C104.691 16.5645 105.101 16.0859 105.557 15.6758C106.012 15.2656 106.468 14.9694 106.924 14.7871C107.425 14.5592 107.812 14.5365 108.086 14.7188ZM134.062 31.6719C134.062 32.2643 134.04 33.1986 133.994 34.4746C133.994 35.7507 133.971 37.1862 133.926 38.7812C133.88 40.3763 133.812 42.0397 133.721 43.7715C133.675 45.4577 133.584 47.0072 133.447 48.4199C133.311 49.7871 133.151 50.9264 132.969 51.8379C132.832 52.7493 132.65 53.2051 132.422 53.2051C131.738 53.2051 131.077 52.7266 130.439 51.7695C129.847 50.7669 129.232 49.696 128.594 48.5566C128.457 48.2832 128.298 47.4857 128.115 46.1641C127.979 44.7969 127.819 43.0879 127.637 41.0371C127.5 38.9863 127.363 36.7077 127.227 34.2012C127.09 31.6947 126.953 29.1426 126.816 26.5449C126.68 23.9473 126.566 21.3952 126.475 18.8887C126.429 16.3822 126.383 14.1263 126.338 12.1211C126.292 10.1159 126.292 8.45247 126.338 7.13086C126.383 5.76367 126.475 4.96615 126.611 4.73828C126.794 4.41927 127.432 4.19141 128.525 4.05469C129.619 3.8724 130.941 3.78125 132.49 3.78125C134.085 3.78125 135.794 3.82682 137.617 3.91797C139.44 4.00911 141.126 4.14583 142.676 4.32812C144.271 4.46484 145.592 4.62435 146.641 4.80664C147.734 4.98893 148.35 5.14844 148.486 5.28516C148.669 5.46745 148.691 5.96875 148.555 6.78906C148.464 7.5638 148.281 8.42969 148.008 9.38672C147.78 10.2982 147.484 11.1641 147.119 11.9844C146.8 12.8047 146.527 13.3288 146.299 13.5566C146.071 13.7845 145 13.7617 143.086 13.4883C141.217 13.2148 138.21 12.8958 134.062 12.5312V23.9473C137.253 24.2207 139.736 24.4714 141.514 24.6992C143.337 24.9271 144.294 25.0866 144.385 25.1777C144.567 25.36 144.635 25.7246 144.59 26.2715C144.544 26.8184 144.43 27.4108 144.248 28.0488C144.066 28.6413 143.838 29.2109 143.564 29.7578C143.291 30.2591 143.018 30.6009 142.744 30.7832C142.607 30.8743 141.787 31.0111 140.283 31.1934C138.825 31.3757 136.751 31.5352 134.062 31.6719ZM163.184 15.6074C163.503 15.8809 163.799 16.4049 164.072 17.1797C164.391 17.9544 164.665 18.8887 164.893 19.9824C165.12 21.0762 165.326 22.2611 165.508 23.5371C165.69 24.8132 165.85 26.0664 165.986 27.2969C166.123 28.5273 166.214 29.6895 166.26 30.7832C166.351 31.8314 166.419 32.6973 166.465 33.3809C166.51 34.2012 166.533 35.0671 166.533 35.9785C166.579 36.8444 166.579 37.6875 166.533 38.5078C166.533 39.2826 166.488 39.9889 166.396 40.627C166.351 41.265 166.26 41.7435 166.123 42.0625C165.85 42.7461 165.371 43.2246 164.688 43.498C164.049 43.7259 163.32 43.8854 162.5 43.9766C162.09 44.0221 161.383 44.0449 160.381 44.0449C159.424 43.9993 158.376 43.9538 157.236 43.9082C156.143 43.8171 155.094 43.7259 154.092 43.6348C153.089 43.5436 152.337 43.4525 151.836 43.3613C150.833 43.1335 150.104 42.8372 149.648 42.4727C149.238 42.1081 148.828 41.584 148.418 40.9004C148.281 40.627 148.167 39.9434 148.076 38.8496C147.985 37.7103 147.917 36.3659 147.871 34.8164C147.871 33.2214 147.894 31.5124 147.939 29.6895C147.985 27.8665 148.053 26.1348 148.145 24.4941C148.281 22.8535 148.418 21.418 148.555 20.1875C148.737 18.957 148.965 18.1367 149.238 17.7266C149.694 17.0885 150.469 16.4961 151.562 15.9492C152.702 15.4023 153.727 14.9694 154.639 14.6504C155.094 14.5137 155.687 14.4225 156.416 14.377C157.191 14.2858 157.988 14.2858 158.809 14.377C159.674 14.4225 160.495 14.5592 161.27 14.7871C162.044 14.9694 162.682 15.2428 163.184 15.6074ZM159.355 36.7988C159.447 36.6165 159.538 36.0697 159.629 35.1582C159.766 34.2012 159.857 33.0618 159.902 31.7402C159.993 30.4186 160.039 29.0059 160.039 27.502C160.085 25.998 160.107 24.6081 160.107 23.332C160.107 22.056 160.062 20.985 159.971 20.1191C159.88 19.2077 159.766 18.6836 159.629 18.5469C159.401 18.3646 159.059 18.2962 158.604 18.3418C158.193 18.3418 157.76 18.4102 157.305 18.5469C156.849 18.638 156.439 18.7747 156.074 18.957C155.71 19.0938 155.459 19.2305 155.322 19.3672C154.73 19.8685 154.411 20.6888 154.365 21.8281C154.365 22.1471 154.32 23.0586 154.229 24.5625C154.183 26.0208 154.16 27.6159 154.16 29.3477C154.16 31.0339 154.183 32.6061 154.229 34.0645C154.32 35.5228 154.479 36.4115 154.707 36.7305C154.935 37.0495 155.254 37.3001 155.664 37.4824C156.12 37.6191 156.576 37.6875 157.031 37.6875C157.533 37.6875 157.988 37.6191 158.398 37.4824C158.854 37.3001 159.173 37.0723 159.355 36.7988ZM184.922 15.6074C185.241 15.8809 185.537 16.4049 185.811 17.1797C186.13 17.9544 186.403 18.8887 186.631 19.9824C186.859 21.0762 187.064 22.2611 187.246 23.5371C187.428 24.8132 187.588 26.0664 187.725 27.2969C187.861 28.5273 187.952 29.6895 187.998 30.7832C188.089 31.8314 188.158 32.6973 188.203 33.3809C188.249 34.2012 188.271 35.0671 188.271 35.9785C188.317 36.8444 188.317 37.6875 188.271 38.5078C188.271 39.2826 188.226 39.9889 188.135 40.627C188.089 41.265 187.998 41.7435 187.861 42.0625C187.588 42.7461 187.109 43.2246 186.426 43.498C185.788 43.7259 185.059 43.8854 184.238 43.9766C183.828 44.0221 183.122 44.0449 182.119 44.0449C181.162 43.9993 180.114 43.9538 178.975 43.9082C177.881 43.8171 176.833 43.7259 175.83 43.6348C174.827 43.5436 174.076 43.4525 173.574 43.3613C172.572 43.1335 171.842 42.8372 171.387 42.4727C170.977 42.1081 170.566 41.584 170.156 40.9004C170.02 40.627 169.906 39.9434 169.814 38.8496C169.723 37.7103 169.655 36.3659 169.609 34.8164C169.609 33.2214 169.632 31.5124 169.678 29.6895C169.723 27.8665 169.792 26.1348 169.883 24.4941C170.02 22.8535 170.156 21.418 170.293 20.1875C170.475 18.957 170.703 18.1367 170.977 17.7266C171.432 17.0885 172.207 16.4961 173.301 15.9492C174.44 15.4023 175.465 14.9694 176.377 14.6504C176.833 14.5137 177.425 14.4225 178.154 14.377C178.929 14.2858 179.727 14.2858 180.547 14.377C181.413 14.4225 182.233 14.5592 183.008 14.7871C183.783 14.9694 184.421 15.2428 184.922 15.6074ZM181.094 36.7988C181.185 36.6165 181.276 36.0697 181.367 35.1582C181.504 34.2012 181.595 33.0618 181.641 31.7402C181.732 30.4186 181.777 29.0059 181.777 27.502C181.823 25.998 181.846 24.6081 181.846 23.332C181.846 22.056 181.8 20.985 181.709 20.1191C181.618 19.2077 181.504 18.6836 181.367 18.5469C181.139 18.3646 180.798 18.2962 180.342 18.3418C179.932 18.3418 179.499 18.4102 179.043 18.5469C178.587 18.638 178.177 18.7747 177.812 18.957C177.448 19.0938 177.197 19.2305 177.061 19.3672C176.468 19.8685 176.149 20.6888 176.104 21.8281C176.104 22.1471 176.058 23.0586 175.967 24.5625C175.921 26.0208 175.898 27.6159 175.898 29.3477C175.898 31.0339 175.921 32.6061 175.967 34.0645C176.058 35.5228 176.217 36.4115 176.445 36.7305C176.673 37.0495 176.992 37.3001 177.402 37.4824C177.858 37.6191 178.314 37.6875 178.77 37.6875C179.271 37.6875 179.727 37.6191 180.137 37.4824C180.592 37.3001 180.911 37.0723 181.094 36.7988ZM211.035 7.74609C211.172 8.83984 211.217 11.0273 211.172 14.3086C211.172 15.7214 211.126 17.4303 211.035 19.4355C210.99 21.4408 210.898 23.8561 210.762 26.6816C210.625 29.4616 210.443 32.6973 210.215 36.3887C210.033 40.0345 209.782 44.1816 209.463 48.8301C209.372 49.2858 209.167 49.7871 208.848 50.334C208.574 50.8809 208.255 51.3822 207.891 51.8379C207.526 52.2936 207.139 52.681 206.729 53C206.318 53.2734 205.954 53.3646 205.635 53.2734C205.544 53.2279 205.43 52.8633 205.293 52.1797C205.202 51.4961 205.111 50.5391 205.02 49.3086C202.969 50.2201 201.032 50.8353 199.209 51.1543C197.386 51.4733 195.905 51.2682 194.766 50.5391C194.31 50.2656 193.854 49.7871 193.398 49.1035C192.988 48.3743 192.601 47.5312 192.236 46.5742C191.872 45.6172 191.576 44.6146 191.348 43.5664C191.12 42.4727 191.006 41.4473 191.006 40.4902C191.006 39.8066 191.051 38.8952 191.143 37.7559C191.234 36.6165 191.348 35.3861 191.484 34.0645C191.621 32.6973 191.781 31.3301 191.963 29.9629C192.145 28.5501 192.327 27.2513 192.51 26.0664C192.692 24.8815 192.852 23.8789 192.988 23.0586C193.125 22.2383 193.239 21.737 193.33 21.5547C193.421 21.0078 193.581 20.5521 193.809 20.1875C194.082 19.8229 194.31 19.5495 194.492 19.3672C194.948 19.0026 195.609 18.7292 196.475 18.5469C197.386 18.3646 198.32 18.2507 199.277 18.2051C200.28 18.1595 201.214 18.1823 202.08 18.2734C202.946 18.319 203.584 18.4102 203.994 18.5469H204.131C204.04 12.8958 204.04 8.54362 204.131 5.49023C204.222 2.43685 204.404 0.796224 204.678 0.568359C204.86 0.431641 205.27 0.545573 205.908 0.910156C206.546 1.27474 207.207 1.79883 207.891 2.48242C208.62 3.16602 209.281 3.98633 209.873 4.94336C210.511 5.85482 210.898 6.78906 211.035 7.74609ZM200.645 46.0273C201.283 45.8906 201.852 45.7311 202.354 45.5488C202.9 45.321 203.356 45.1159 203.721 44.9336C204.131 44.7513 204.473 44.5234 204.746 44.25C204.701 43.0651 204.655 41.7435 204.609 40.2852C204.564 38.7812 204.518 37.2318 204.473 35.6367C204.427 34.0417 204.382 32.4238 204.336 30.7832C204.29 29.097 204.245 27.4792 204.199 25.9297C204.199 25.4284 204.108 24.9954 203.926 24.6309C203.789 24.2663 203.607 23.9701 203.379 23.7422C203.242 23.651 202.969 23.5371 202.559 23.4004C202.148 23.2181 201.67 23.0814 201.123 22.9902C200.622 22.8535 200.12 22.7852 199.619 22.7852C199.163 22.7852 198.844 22.8763 198.662 23.0586C198.571 23.1042 198.48 23.5599 198.389 24.4258C198.343 25.2461 198.275 26.2943 198.184 27.5703C198.138 28.8008 198.07 30.1452 197.979 31.6035C197.933 33.0618 197.887 34.429 197.842 35.7051C197.796 36.9811 197.751 38.0749 197.705 38.9863C197.66 39.8978 197.637 40.3991 197.637 40.4902C197.637 41.265 197.728 41.9941 197.91 42.6777C198.138 43.3613 198.411 43.9766 198.73 44.5234C199.049 45.0247 199.391 45.4349 199.756 45.7539C200.12 46.0273 200.417 46.1185 200.645 46.0273Z" fill="white"/>
</svg>
